# xmcd
#
# Track frame offsets: 
#        150
#        17001
#        36794
#        54487
#        71345
#        87955
#        106336
#        123169
#        135859
#        151895
#        168008
#
# Disc length: 2500 seconds
#
# Revision: 5
# Processed by: cddbd v1.5.2PL0 Copyright (c) Steve Scherf et al.
# Submitted via: ExactAudioCopy v0.99pb4
#
DISCID=7809c20b
DTITLE=Περίδης Ορφέας - Καλή σου μέρα αν ξυπνάς
DYEAR=1996
DGENRE=Greek
TTITLE0=Τα τραγούδια μου τ' Αμερικάνικα
TTITLE1=Ο καφές
TTITLE2=Αχ, να σε δω
TTITLE3=Κάτι μου κρύβεις
TTITLE4=Δε σε κοιτάω στα μάτια
TTITLE5=Στάγδην βραδέως
TTITLE6=Αυγερινός
TTITLE7=Εθνικό έλλειμμα
TTITLE8=Καρδερίνα
TTITLE9=Είμαστε όλοι εδώ
TTITLE10=Ατελείωτο τραγούδι
EXTD=YEAR: 1996
EXTT0=
EXTT1=
EXTT2=
EXTT3=
EXTT4=
EXTT5=
EXTT6=
EXTT7=
EXTT8=
EXTT9=
EXTT10=
PLAYORDER=
